<svg xmlns="http://www.w3.org/2000/svg" viewBox="0 0 64 64">
  <defs>
    <linearGradient id="sea" x1="8" y1="4" x2="56" y2="60" gradientUnits="userSpaceOnUse">
      <stop stop-color="#1d5e89"/>
      <stop offset="1" stop-color="#0d213c"/>
    </linearGradient>
  </defs>
  <rect width="64" height="64" rx="15" fill="url(#sea)"/>
  <path d="M11 36.5c8.6-7.3 17.1-7.3 25.7 0 5.2 4.4 10.2 4.4 15 0" fill="none" stroke="#fff" stroke-linecap="round" stroke-width="4"/>
  <path d="M11 45c8.6-7.3 17.1-7.3 25.7 0 5.2 4.4 10.2 4.4 15 0" fill="none" stroke="#69c7e6" stroke-linecap="round" stroke-width="4"/>
  <path d="M30.8 13.5c2.6 0 4.7 2.1 4.7 4.7 0 1.8-1 3.4-2.5 4.2l-.7 7.1h-3l-.8-7.1a4.65 4.65 0 0 1-2.5-4.2c0-2.6 2.1-4.7 4.8-4.7Z" fill="#f4c86a"/>
  <circle cx="30.8" cy="18.2" r="1.6" fill="#c94934"/>
</svg>
